<?xml version="1.0" encoding="utf-8"?>
<svg viewBox="1.451 49.935 373.215 44.21" xmlns="http://www.w3.org/2000/svg">
  <g transform="matrix(1, 0, 0, 1, 0.6846349835395831, -0.12865599989890875)">
    <g fill="#000000" fill-opacity="1">
      <g transform="translate(3.405286, 90.446952)">
        <g>
          <path d="M 19.839844 -37.910156 C 9.121094 -37.910156 0.457031 -29.246094 0.457031 -18.585938 C 0.457031 -7.925781 9.121094 0.796875 19.839844 0.796875 C 30.5 0.796875 39.164062 -7.925781 39.164062 -18.585938 C 39.164062 -29.246094 30.5 -37.910156 19.839844 -37.910156 Z M 18.871094 -21.71875 C 21.148438 -21.71875 23.03125 -19.839844 23.03125 -17.558594 C 23.03125 -15.222656 21.148438 -13.398438 18.871094 -13.398438 C 5.871094 -13.398438 4.617188 -32.378906 15.5625 -35.746094 L 15.5625 -20.011719 C 16.304688 -21.09375 17.558594 -21.71875 18.871094 -21.71875 Z M 18.871094 -21.71875 "/>
        </g>
      </g>
    </g>
    <g fill="#000000" fill-opacity="1">
      <g transform="translate(43.134851, 90.446952)">
        <g>
          <path d="M 25.769531 -37.054688 L 1.710938 -37.054688 L 1.710938 -0.0585938 L 26.109375 -0.0585938 C 39.050781 -0.0585938 39.394531 -16.703125 28.445312 -19.726562 C 37.113281 -22.289062 37.167969 -37.054688 25.769531 -37.054688 Z M 15.621094 -20.351562 L 15.621094 -35.914062 C 22.859375 -34.433594 22.632812 -21.835938 15.621094 -20.351562 Z M 21.433594 -10.605469 C 21.492188 -6.953125 19.667969 -2.167969 15.960938 -2.167969 C 14.195312 -2.167969 12.710938 -3.589844 12.710938 -5.414062 C 12.710938 -7.070312 14.023438 -8.4375 15.675781 -8.609375 C 15.621094 -11.972656 15.621094 -15.277344 15.621094 -18.640625 C 18.984375 -17.5 21.378906 -14.367188 21.433594 -10.605469 Z M 21.433594 -10.605469 "/>
        </g>
      </g>
    </g>
    <g fill="#000000" fill-opacity="1">
      <g transform="translate(80.299386, 90.446952)">
        <g>
          <path d="M 8.949219 -20.980469 L 9.007812 0 L 23.03125 0 L 22.972656 -21.71875 L 29.53125 -21.71875 L 29.53125 -37.054688 L 1.480469 -37.054688 L 1.480469 -21.664062 C 4.105469 -21.664062 14.136719 -21.09375 14.023438 -29.246094 C 13.96875 -32.324219 12.542969 -33.691406 10.660156 -34.773438 L 10.886719 -35.402344 C 21.265625 -33.75 18.472656 -21.492188 8.949219 -20.980469 Z M 8.949219 -20.980469 "/>
        </g>
      </g>
    </g>
    <g fill="#000000" fill-opacity="1">
      <g transform="translate(110.737822, 90.446952)">
        <g>
          <path d="M 10.832031 0 L 35.34375 0 L 35.34375 -21.949219 C 35.34375 -31.925781 29.359375 -37.054688 19.382812 -37.054688 L 4.332031 -37.054688 L 4.277344 -22.0625 C 4.277344 -22.0625 17.558594 -20.464844 17.730469 -29.472656 C 17.730469 -31.582031 17.046875 -33.121094 15.960938 -34.203125 L 16.363281 -34.773438 C 19.269531 -33.234375 21.148438 -30.441406 21.035156 -25.652344 L 21.035156 -20.238281 L 12.144531 -20.238281 C -2.453125 -20.238281 -3.421875 0 10.832031 0 Z M 21.148438 -18.585938 L 21.148438 -8.609375 C 22.6875 -8.324219 23.828125 -7.011719 23.828125 -5.414062 C 23.828125 -3.648438 22.402344 -2.222656 20.636719 -2.222656 C 17.046875 -2.222656 15.507812 -7.695312 15.5625 -10.375 C 15.621094 -14.136719 17.902344 -17.332031 21.148438 -18.585938 Z M 21.148438 -18.585938 "/>
        </g>
      </g>
    </g>
    <g fill="#000000" fill-opacity="1">
      <g transform="translate(147.788346, 90.446952)">
        <g>
          <path d="M 1.710938 -37.113281 L 1.710938 -0.0585938 L 16.589844 -0.0585938 L 16.589844 -37.113281 Z M 1.710938 -37.113281 "/>
        </g>
      </g>
    </g>
    <g fill="#000000" fill-opacity="1">
      <g transform="translate(166.25661, 90.446952)">
        <g>
          <path d="M 15.621094 0 L 15.621094 -18.300781 C 15.621094 -23.542969 22.121094 -23.488281 22.121094 -18.1875 L 22.121094 0 L 36.027344 0 L 36.027344 -23.375 C 36.027344 -30.613281 34.488281 -37.054688 26.109375 -37.226562 C 18.753906 -37.398438 16.476562 -30.613281 16.363281 -24.058594 L 15.621094 -24.058594 L 15.621094 -37.054688 L 1.425781 -37.054688 L 1.425781 0 Z M 15.621094 0 "/>
        </g>
      </g>
    </g>
    <g fill="#000000" fill-opacity="1">
      <g transform="translate(203.877139, 90.446952)">
        <g>
          <path d="M 10.832031 0 L 35.34375 0 L 35.34375 -21.949219 C 35.34375 -31.925781 29.359375 -37.054688 19.382812 -37.054688 L 4.332031 -37.054688 L 4.277344 -22.0625 C 4.277344 -22.0625 17.558594 -20.464844 17.730469 -29.472656 C 17.730469 -31.582031 17.046875 -33.121094 15.960938 -34.203125 L 16.363281 -34.773438 C 19.269531 -33.234375 21.148438 -30.441406 21.035156 -25.652344 L 21.035156 -20.238281 L 12.144531 -20.238281 C -2.453125 -20.238281 -3.421875 0 10.832031 0 Z M 21.148438 -18.585938 L 21.148438 -8.609375 C 22.6875 -8.324219 23.828125 -7.011719 23.828125 -5.414062 C 23.828125 -3.648438 22.402344 -2.222656 20.636719 -2.222656 C 17.046875 -2.222656 15.507812 -7.695312 15.5625 -10.375 C 15.621094 -14.136719 17.902344 -17.332031 21.148438 -18.585938 Z M 21.148438 -18.585938 "/>
        </g>
      </g>
    </g>
    <g fill="#000000" fill-opacity="1">
      <g transform="translate(240.927662, 90.446952)">
        <g>
          <path d="M 25.769531 -37.054688 L 1.710938 -37.054688 L 1.710938 -0.0585938 L 26.109375 -0.0585938 C 39.050781 -0.0585938 39.394531 -16.703125 28.445312 -19.726562 C 37.113281 -22.289062 37.167969 -37.054688 25.769531 -37.054688 Z M 15.621094 -20.351562 L 15.621094 -35.914062 C 22.859375 -34.433594 22.632812 -21.835938 15.621094 -20.351562 Z M 21.433594 -10.605469 C 21.492188 -6.953125 19.667969 -2.167969 15.960938 -2.167969 C 14.195312 -2.167969 12.710938 -3.589844 12.710938 -5.414062 C 12.710938 -7.070312 14.023438 -8.4375 15.675781 -8.609375 C 15.621094 -11.972656 15.621094 -15.277344 15.621094 -18.640625 C 18.984375 -17.5 21.378906 -14.367188 21.433594 -10.605469 Z M 21.433594 -10.605469 "/>
        </g>
      </g>
    </g>
    <g fill="#000000" fill-opacity="1">
      <g transform="translate(278.092197, 90.446952)">
        <g>
          <path d="M 16.132812 -15.734375 L 16.132812 -37.113281 L 1.710938 -37.113281 L 1.710938 -0.0585938 L 24.742188 -0.0585938 L 24.742188 -15.5625 C 22.0625 -15.5625 11.972656 -16.132812 12.085938 -7.925781 C 12.144531 -4.789062 13.625 -2.90625 15.5625 -1.824219 L 15.335938 -1.195312 C 10.203125 -1.882812 8.664062 -4.960938 8.664062 -8.152344 C 8.550781 -12.882812 11.6875 -15.390625 16.132812 -15.734375 Z M 16.132812 -15.734375 "/>
        </g>
      </g>
    </g>
    <g fill="#000000" fill-opacity="1">
      <g transform="translate(303.970559, 90.446952)">
        <g>
          <path d="M 32.152344 -21.035156 L 32.210938 -37.113281 L 11.402344 -37.113281 C 0 -37.113281 -1.765625 -21.949219 8.609375 -18.753906 C -2.050781 -15.5625 -1.480469 -0.0585938 11.402344 -0.0585938 L 32.152344 -0.0585938 L 32.210938 -16.246094 C 29.359375 -16.246094 19.324219 -16.816406 19.441406 -8.152344 C 19.441406 -5.246094 20.636719 -3.363281 22.347656 -2.167969 L 22.0625 -1.539062 C 18.015625 -2.453125 15.449219 -6.671875 15.507812 -10.71875 C 15.621094 -15.449219 19.839844 -18.070312 24.570312 -18.1875 L 24.570312 -19.324219 C 18.753906 -19.496094 15.390625 -24.285156 15.675781 -28.675781 C 15.847656 -31.980469 18.300781 -35.003906 22.003906 -35.628906 L 22.289062 -35.003906 C 20.578125 -33.804688 19.382812 -31.925781 19.441406 -29.015625 C 19.554688 -19.324219 32.152344 -21.035156 32.152344 -21.035156 Z M 32.152344 -21.035156 "/>
        </g>
      </g>
    </g>
    <g fill="#000000" fill-opacity="1">
      <g transform="translate(337.316024, 90.446952)">
        <g>
          <path d="M 13.796875 -37.113281 C 7.753906 -37.113281 1.082031 -36.257812 0.742188 -28.5625 C 0.171875 -16.703125 18.8125 -19.097656 19.441406 -7.640625 C 19.269531 -2.566406 15.792969 -1.597656 11.402344 -1.480469 L 11.230469 -2.109375 C 13.28125 -3.25 14.652344 -4.847656 14.59375 -8.152344 C 14.480469 -17.84375 1.597656 -16.132812 1.597656 -16.132812 L 1.652344 -0.0585938 L 23.03125 -0.0585938 C 29.757812 -0.0585938 32.550781 -4.21875 33.234375 -8.324219 C 34.035156 -13.113281 31.582031 -16.644531 26.335938 -19.554688 C 22.460938 -21.71875 15.277344 -24.457031 15.449219 -29.871094 C 15.5625 -34.605469 20.125 -36.085938 24.230469 -35.859375 L 24.34375 -35.230469 C 22.347656 -34.148438 20.808594 -32.722656 20.863281 -29.472656 C 20.980469 -20.296875 33.179688 -21.949219 33.179688 -21.949219 L 33.121094 -37.113281 Z M 13.796875 -37.113281 "/>
        </g>
      </g>
    </g>
  </g>
</svg>